<?xml version="1.0" encoding="iso-8859-1"?>
<!-- Uploaded to: SVG Repo, www.svgrepo.com, Generator: SVG Repo Mixer Tools -->
<svg version="1.1" id="Layer_1" xmlns="http://www.w3.org/2000/svg" xmlns:xlink="http://www.w3.org/1999/xlink" 
	 viewBox="0 0 483.285 483.285" xml:space="preserve">
<g>
	<path style="fill:#91DC5A;" d="M391.098,178.088c-21.596-2.392-43.466-0.143-63.99,6.372l-12.897,12.897
		c6.587,8.818,12.037,18.325,16.287,28.338c42.19-17.472,91.225-8.252,124.501,25.025l28.285-28.284
		C458.53,197.681,425.791,181.931,391.098,178.088z"/>
	<path style="fill:#B6E892;" d="M301.086,182.198c4.776,4.776,9.154,9.844,13.125,15.16l12.897-12.897L434.614,76.955
		l-28.285-28.284L298.825,156.175c6.515-20.523,8.764-42.393,6.372-63.988C301.353,57.494,285.603,24.755,260.847,0l-28.284,28.284
		c33.279,33.278,42.496,82.313,25.025,124.502C273.637,159.598,288.387,169.499,301.086,182.198z"/>
	<path style="fill:#D80027;" d="M301.086,182.198c-12.699-12.699-27.449-22.6-43.498-29.412
		c-16.771-7.118-34.962-10.862-53.73-10.862c-36.726,0-71.259,14.304-97.228,40.273c-21.09,21.089-34.513,47.798-38.823,77.269
		L46.2,408.8l14.142,14.142L301.086,182.198z"/>
	<path style="fill:#A5001E;" d="M301.086,182.198L60.342,422.942l14.142,14.142l149.364-21.611
		c29.44-4.306,56.148-17.729,77.237-38.819c25.972-25.971,40.274-60.5,40.274-97.228c0-18.769-3.744-36.959-10.862-53.731
		c-4.25-10.013-9.7-19.52-16.287-28.338C310.24,192.042,305.863,186.974,301.086,182.198z"/>
	
		<rect x="4.574" y="426.042" transform="matrix(0.7071 -0.7071 0.7071 0.7071 -304.4915 156.9769)" style="fill:#D5B4E8;" width="65.337" height="40"/>
</g>
</svg>